<?xml version="1.0" ?><!DOCTYPE svg  PUBLIC '-//W3C//DTD SVG 1.1//EN'  'http://www.w3.org/Graphics/SVG/1.1/DTD/svg11.dtd'><svg enable-background="new 0 0 500 500" height="500px" id="pokemon" version="1.1" viewBox="0 0 500 500" width="500px" xml:space="preserve" xmlns="http://www.w3.org/2000/svg" xmlns:xlink="http://www.w3.org/1999/xlink"><g><g><path d="M327.256,140.427l13.208-20.675l-36.18,5.168l21.824-40.201c0,0-72.581,22.398-74.481,22.398     c-1.898,0-11.662-14.357-11.662-14.357l-4.021,14.357l-25.269-22.398v23.546l-92.459-81.882l5.742,136.44     c0,0-33.311,41.349-40.774,64.894c-7.469,23.548-18.953,74.662,4.592,115.436s74.082,104.529,169.415,74.946     c48.816-12.351,81.552-65.183,90.738-96.199c9.189-31.012,14.358-87.831,14.358-87.831l107.391-93.643H327.256z M167.937,180.368     l14.735,46.505c-1.347,1.215-2.743,2.631-4.118,4.206c-5.339,6.111-8.308,12.249-6.636,13.708     c1.672,1.461,7.353-2.31,12.689-8.421c0.268-0.307,0.525-0.613,0.781-0.919l6.907,21.8     C115.196,248.627,167.937,180.368,167.937,180.368z M123.385,233.723c0,0,6.492,15.45,22.289,31.748l-8.135,35.572     C127.476,285.246,122.583,263.962,123.385,233.723z M139.74,304.3l8.328-36.423c7.883,7.707,17.869,15.437,30.253,21.672     l-9.042,39.548C157.096,322.575,147.192,314.689,139.74,304.3z M192.296,339.132c-7.347-2.663-14.146-5.505-20.386-8.664     l9.061-39.619c12.882,6.091,28.252,10.522,46.403,11.727l-9.521,41.64C209.599,343.939,201.074,342.313,192.296,339.132z      M220.789,344.255l9.493-41.521c12.362,0.574,25.979-0.342,40.953-3.227l-7.236,31.649     C250.656,339.37,236.208,344.172,220.789,344.255z M267.45,328.94l6.872-30.053c10.14-2.111,20.876-5.1,32.26-9.146     C295.005,305.632,281.9,319.274,267.45,328.94z M237.665,267.921l19.543-11.879c-0.009,0.398-0.017,0.799-0.017,1.206     c0,8.116,1.801,14.694,4.021,14.694c2.218,0,4.019-6.578,4.019-14.694c0-2.092-0.121-4.077-0.337-5.878l41.688-25.339     C306.582,226.031,301.413,312.143,237.665,267.921z" fill="#222222"/><path d="M449.005,252.412c-5.422-7.745-47.898-9.482-75.01-9.793c-1.486,14.16-5.19,45.708-10.89,70.476     c21.214-8.287,50.906-19.997,59.483-23.927c13.781-6.315,17.226,2.874,17.226,2.874l3.448-14.932l16.079-9.189l-14.932-6.896     C444.41,261.025,444.41,261.025,449.005,252.412z" fill="#222222"/><path d="M260.584,430.133c-8.964,2.764-17.814,4.809-26.492,6.15c6.813,11.588,16.896,29.059,17.535,32.066     c0.97,4.559,30.26,9.764,42.32-4.595c9.556-11.374,33.494-43.647,27.054-71.705C305.002,409.361,284.715,423.939,260.584,430.133     z" fill="#222222"/><path d="M76.954,349.402c-4.269-7.39-7.493-15.036-9.9-22.773c-3.759,7.731-6.047,17.367-3.97,28.582     c5.742,31.011,25.269,41.348,28.137,47.09c2.301,8.043,9.19,11.49,9.19,13.211s5.168-3.447,5.168-3.447s6.892,9.189,10.911,9.764     c4.021,0.573-0.574-12.059,4.021-9.764c4.595,2.301,10.337,4.595,10.337,1.153c0-0.482-0.152-1.025-0.381-1.604     C110.308,396.821,92.307,375.989,76.954,349.402z" fill="#222222"/><path d="M77.976,208.513c10.081-19.329,26.374-40.938,33.302-49.806l-0.558-13.272     c-3.985-1.913-7.939-4.122-11.673-6.732c-22.181-15.505-46.3-25.269-46.3-25.269l2.294,16.081c0,0-28.576-0.575-21.467,5.456     c7.109,6.03,18.596,8.901,14.004,14.645c-4.595,5.742-10.337,6.317-2.874,10.91c7.466,4.595,12.634,7.466,22.971,26.417     C71.712,194.34,74.874,201.73,77.976,208.513z" fill="#222222"/><path d="M210.376,438.175c-12.787,0-25.138-1.757-36.994-5.187c6.453,10.209,16.433,22.212,30.401,28.906     c3.423-5.815,8.665-16.293,12.354-23.835c-1.928,0.073-3.851,0.115-5.754,0.115C210.382,438.175,210.379,438.175,210.376,438.175     z" fill="#222222"/></g><g/><g/><g/><g/><g/><g/></g></svg>