<?xml version="1.0" ?><!DOCTYPE svg  PUBLIC '-//W3C//DTD SVG 1.1//EN'  'http://www.w3.org/Graphics/SVG/1.1/DTD/svg11.dtd'><svg enable-background="new 0 0 500 500" height="500px" id="Mewtwo__x2013__Myutsu" version="1.1" viewBox="0 0 500 500" width="500px" xml:space="preserve" xmlns="http://www.w3.org/2000/svg" xmlns:xlink="http://www.w3.org/1999/xlink"><g><g><path d="M169.088,370.784c6.455-22.413-2.661-31.912-14.815-43.687c-12.156-11.775-26.59-21.271-35.708-28.11     c-9.119-6.837-24.312-25.83-27.731-37.607c-3.418-11.775-10.636-54.322-1.899-60.399c8.74-6.079,15.956-13.676,30.769,2.659     c14.818,16.335,28.871,63.439,37.607,78.252c6.759,11.464,29.055,55.421,61.634,72.633c1.147-2.077,2.074-3.761,2.682-4.87     c0.07-7.388,0.319-36.982-0.004-47.262c-0.162-5.087,1.244-10.968,3.738-17.098c-2.464-0.471-4.992-1.312-7.646-2.642     c-12.158-6.079-35.33-25.073-50.527-50.522c-15.191-25.453-43.304-58.501-63.057-55.463     c-19.754,3.039-39.23,18.234-36.519,52.043c2.71,33.807,32.718,94.207,42.596,106.745     C120.083,347.992,162.629,393.195,169.088,370.784z" fill="#222222"/><path d="M264.331,358.09c-1.636,0.748-3.492,1.597-4.929,2.308c42.79-4.204,62.726-8.63,78.35-30.64     c16.714-23.553,23.933-57.362,4.938-74.073c-16.896-14.87-28.975-20.393-33.312,3.966c5.274,19.107,3.481,43.463-5.649,66.162     C296.689,343.31,276.433,352.564,264.331,358.09z" fill="#222222"/><path d="M423.223,268.219c-4.558-5.32-16.333-14.438-18.995-19.754c-2.658-5.318-16.334-19.374-22.413-29.251     c-6.075-9.876-14.056-17.475-20.13-19.754c-6.08-2.278-13.296-6.457-22.416-14.813c-1.827-1.676-3.979-3.675-6.246-5.796     c0.728,8.817-1.05,18.034-1.622,20.69c7.982,5.909,16.445,12.978,22.59,15.115c10.919,3.798,26.308,28.49,32.383,37.986     c-5.315,5.32-7.979,19.373-7.599,25.832c0.385,6.457,2.28,11.396,6.462,14.438c4.179,3.035,6.457-1.521,9.114-4.561     c2.66-3.04,1.898-7.219-0.759-11.651c-2.658-4.434-2.278-5.824,3.037-7.723c5.32-1.898,11.021,11.775,8.74,15.956     c-4.559,2.658-4.559,7.597-3.8,12.534c0.76,4.938,7.219,5.32,10.257,4.18c3.037-1.142,2.657-3.8,6.079-7.217     c2.278,3.797,6.834,7.599,12.534,0S427.781,273.536,423.223,268.219z" fill="#222222"/><path d="M166.787,181.643c4.55,0,8.614-2.078,11.296-5.336c0.45,0.07,0.874,0.126,1.261,0.166     c7.597,5.135,15.955,9.692,26.59,5.135c2.891-1.239,5.346-2.617,7.41-3.969c-0.032,0.401-0.061,0.803-0.061,1.212     c0,8.338,6.759,15.097,15.098,15.097c8.337,0,15.096-6.759,15.096-15.097c0-3.041-0.907-5.866-2.453-8.235     c-0.684-4.218-1.447-11.391-2.804-24.165l-0.393-3.711c-10.1-4.497-21.852-10.173-27.158-8.616     c-1.862-2.628-4.81-6.262-8.006-9.584c0.14-0.839,0.23-1.694,0.23-2.573c0-8.603-6.971-15.574-15.573-15.574     c-8.602,0-15.573,6.972-15.573,15.574c0,5.799,3.176,10.849,7.876,13.53c5.563,4.734,9.952,5.914,8.456,10.023     c-1.196,3.287-4.293,7.739-12.21,10.048c-2.496-1.983-5.648-3.175-9.083-3.175c-8.075,0-14.625,6.547-14.625,14.626     C152.162,175.095,158.712,181.643,166.787,181.643z" fill="#222222"/><path d="M394.351,423.966c-9.496-0.76-26.212-1.519-31.527-3.04c-5.318-1.519-22.795-18.993-26.212-25.068     c-3.417-6.082,0-37.228,0-37.228s34.206-28.492,34.574-45.588c0.375-17.095,4.554-48.017-36.476-74.91     c-5.327-7.461-11.887-22.208-16.043-34.872c2.762,0.316,5.198-0.947,6.05-4.671c1.791-7.844,3.219-22.389-1.065-28.564     c-4.286-6.176-17.54-22.465-26.279-22.085c-1.677-1.399-3.314-2.171-4.827-2.04c-0.122-3.182-0.165-7.153-0.168-11.075     c13.216,4.833,26.75,7.93,29.799,7.276c7.597-4.18,7.217-16.715,7.036-20.133c-0.183-3.419,4.741-6.458,9.3-12.917     s-0.76-25.831-3.802-31.529c-3.037-5.699,3.422-34.948,3.042-38.748c-0.382-3.798-8.261-8.147-15.576-7.596     c-6.255,0.47-6.459,14.434-12.161,19.751c-4.94-4.557-24.685-6.077-24.685-6.077c-1.898-16.714-2.66-16.714-12.918-18.234     c-16.716-2.66-12.157,3.419-10.256,16.336c1.898,12.915-3.418,14.434-15.197,34.567c-8.857,15.145,0.771,26.42,11.099,35.768     c-6.684,6.807-13.391,17.443-12.976,32.514c-0.056-0.022-0.109-0.041-0.166-0.062c0,0,0.158,1.486,0.402,3.74     c0.022,0.219,0.046,0.44,0.072,0.662c0.809,7.447,2.4,21.761,2.71,21.967c2.658,5.699,6.459,15.195,15.576,24.692     c9.115,9.497,23.541,22.032,14.618,37.228c-0.869,1.481-1.744,3.254-2.611,5.242c-4.033,1.721-10.051,5.532-13.727,8.433     c-20.695,16.335-33.988,42.472-33.608,54.475c0.379,12.004-0.008,49.229-0.008,49.229s-15.569,28.49-23.926,42.165     c-8.356,13.676-12.155,30.773-17.474,38.369c-5.316,7.597-8.356,9.117-12.915,15.574s-10.258,9.879-9.497,16.716     c0.761,6.836,5.318,15.194,23.933,6.077c8.356-4.938,22.208-6.837,22.208-6.837s9.32,7.976,16.538,4.936     c7.216-3.037,15.194-10.256,10.259-17.093c-4.943-6.839-4.943-6.839-4.943-6.839s0-5.317-1.14-8.355     c-1.137-3.039-2.476-11.397-9.403-11.397c0.287-8.737-0.092-14.055,2.187-17.095c2.281-3.037,23.176-46.725,28.871-51.283     c5.699-4.556,36.326-12.872,44.446-33.048c9.431-23.445,10.175-46.459,5.008-63.374l0.257-1.454     c2.631-14.765,8.766-22.251,18.241-22.251c6.939,0,14.513,4.174,26.146,14.41c21.999,19.36,14.415,57.225-3.897,83.026     c-8.275,11.66-17.691,18.826-29.968,23.603c0.117,1.436,0.293,2.795,0.549,4.027c2.278,11.018-0.011,20.515-3.806,25.455     c-3.792,4.936-6.072,12.914-7.971,16.713c-1.901,3.797-9.497,7.217-6.077,14.436c3.417,7.216,6.834,12.914,22.03,6.836     c7.599,1.521,14.817,6.84,19.373,11.019c4.559,4.176,15.577,12.534,30.389,11.397c14.817-1.142,18.994-4.94,18.994-4.94     s6.459,2.277,11.018-1.14C402.329,437.642,403.85,424.725,394.351,423.966z M326.028,116.46c1.822-2.708,0.612-9.934,0.612-9.934     C333.23,110.686,329.475,112.66,326.028,116.46c-0.158,0.237-0.332,0.451-0.542,0.611     C325.691,116.863,325.843,116.665,326.028,116.46z M324.438,127.947c0.43,0,0.784,3.955,0.784,5.132s-0.354,2.131-0.784,2.131     c-0.435,0-0.787-0.954-0.787-2.131S324.004,127.947,324.438,127.947z M318.021,127.23c0.581,0,1.052,4.275,1.052,5.849     c0,1.573-0.471,2.849-1.052,2.849s-1.048-1.276-1.048-2.849C316.973,131.505,317.439,127.23,318.021,127.23z M312.353,116.396     c2.521-3.467,0.885-13.211,0.885-13.211C316.874,107.024,321.097,112.36,312.353,116.396c-0.19,0.26-0.398,0.492-0.636,0.675     C311.943,116.842,312.145,116.62,312.353,116.396z M273.931,129.944c0.225,4.273,0.126,10.008,0.007,13.978     c-3.811-2.88-7.423-4.849-9.729-4.081c-0.375,0.125-0.771,0.257-1.183,0.395c-0.903-4.707-1.067-12.654,6.482-16.868     c1.261,0.996,2.708,1.981,4.307,2.949C273.841,127.697,273.879,128.938,273.931,129.944z M295.768,117.039     c0.979-2.792,1.604-7.037,1.604-11.793c0-2.353-0.157-4.571-0.43-6.56c5.633,7.853,8.736,17.203,8.736,17.203     S300.896,116.855,295.768,117.039z M286.47,89.298c1.544,0.676,3.006,1.611,4.381,2.726c-1.314,2.623-2.203,7.556-2.203,13.223     c0,4.525,0.568,8.578,1.467,11.367l-6.408-5.1C282.256,104.696,285.02,92.481,286.47,89.298z" fill="#222222"/></g><g/><g/><g/><g/><g/><g/></g></svg>