<?xml version="1.0" ?><!DOCTYPE svg  PUBLIC '-//W3C//DTD SVG 1.1//EN'  'http://www.w3.org/Graphics/SVG/1.1/DTD/svg11.dtd'><svg enable-background="new 0 0 500 500" height="500px" id="pokemon" version="1.1" viewBox="0 0 500 500" width="500px" xml:space="preserve" xmlns="http://www.w3.org/2000/svg" xmlns:xlink="http://www.w3.org/1999/xlink"><g><g><path d="M224.9,259.324c-30.587,0-22.607,94.861-23.052,99.295c-0.442,4.434-31.475,54.526-34.575,59.398     c1.329,3.104,0.442,22.607-0.442,26.156c-0.888,3.55-5.321,13.74-5.763,16.399c-0.445,2.664,10.639,10.196,12.855,11.543     c2.214,1.347,3.989-4.45,6.206-11.543c1.329,3.549,17.289,11.971,20.315,11.525c3.029-0.444,0.517-8.861,1.85-14.63     c3.988,4.439,16.844,5.769,19.948,3.994c3.104-1.774-11.083-19.947-17.289-24.381c0.442-4.879-3.104-19.504-4.433-23.498     c-1.33-3.988,15.514-26.595,22.165-33.242c6.647-6.653,10.194-6.653,15.515-8.867s16.401-33.688,24.193-63.833     C270.184,277.497,255.484,259.324,224.9,259.324z" fill="#222222"/><path d="M332.617,244.7c-0.971-0.237-2.018-0.381-3.092-0.48l-10.237,11.555     c-0.341,7.659-1.584,29.059-5.093,40.573c-1.699,5.555-4.543,10.179-8.104,14.115c13.069-4.174,26.236-14.11,23.867-9.029     c-3.104,6.653-10.643,20.839-11.428,31.92c-0.793,11.08,8.323,23.052,10.098,26.15c1.774,3.104,4.434,22.612,5.763,27.93     c2.659-3.549,7.093-10.641,7.093-10.641s1.33,7.537,3.543,10.641c2.221-3.104,4.879-7.977,4.879-7.977l1.774,5.758     c0,0,0,0,2.214-4.428c3.55-4.434,10.197-15.076,5.318-28.37c-4.873-13.301-6.647-31.035-7.093-36.798     c-0.439-5.758,12.417-33.243,15.96-38.122c3.549-4.878-1.33-15.069-5.318-21.277C358.773,250.018,341.93,246.914,332.617,244.7z" fill="#222222"/><path d="M455.849,290.798c-3.543-4.878-14.185,0-14.185,0l-48.758-23.937l-10.196-16.404l12.855-15.515     l-18.618,5.844l-3.104-6.283l11.526-12.855l-17.734,2.659c0,0-4.873-4.434-5.318-9.757c-0.335-4.035,0.348-6.798-1.248-9.642     c-3.705,5.878-7.063,11.948-8.271,16.173c-0.804,2.81-1.966,5.249-3.358,7.376c13.428,14.381,31.566,54.208,31.942,55.693     c0.439,1.77,5.763,3.544,15.514,7.532c1.33,9.306,48.318,93.977,58.07,108.162c7.977-13.74-5.764-70.041-7.983-78.018     c-2.214-7.978,1.775-3.988,6.208-4.434c4.434-0.445,6.653,7.093,11.081,11.081C469.595,321.827,459.398,295.677,455.849,290.798z     " fill="#222222"/><path d="M178.652,384.851c7.182-11.989,14.009-23.717,15.589-27.439c-0.02-0.925-0.081-2.469-0.139-3.978     c-0.462-12.006-0.723-25.723-0.078-39.104c-10.575,17.89-23.063,28.804-56.451,32.317c-33.691,3.55-66.049-3.098-61.619-52.525     c20.835-2.885,49.65-14.851,49.65-19.729c-12.413-1.769-41.668-3.988-41.668-3.988s5.458-7.785,11.361-15.315     c27.144-0.611,58.144-3.521,77.735-7.731c41.226-8.867,69.627-13.537,69.627-13.537c6.754-5.596,11.708-9.983,15.338-13.399     c-3.888-0.74-12.035-1.468-16.697-2.323c2.006-1.827,10.393-3.873,20.495-5.561c1.531-1.861,2.063-2.861,2.236-3.33     c0.283-1.266,0.451-3.046,0.647-5.109c0.295-3.156,0.653-6.867,1.774-10.867l-16.731-27.885l-3.104,31.474l-8.422,2.214     l-19.948-24.821c0,0,1.774,23.491-0.887,33.249c-9.687,4.018-14.913,7.029-17.13,9.336     c-34.198,6.762-115.515,22.73-159.197,30.387c-3.076-2.448-5.52-4.681-6.749-6.399c3.104,19.867,5.321,42.035,26.156,48.237     c-7.982,18.174-14.63,50.977,5.318,68.711c19.948,17.729,45.659,43.885,103.287,29.699     C172.308,386.631,175.504,385.764,178.652,384.851z M47.991,252.368c8.329,2.038,22.456,2.904,38.719,2.838     c-3.573,2.444-6.767,4.87-8.538,6.776c-5.763,6.209-5.763,6.209-5.763,6.209S59.067,260.213,47.991,252.368z" fill="#222222"/><path d="M244.484,140.85l23.226,40.602l10.838-10.439l1.734-0.532c1.896-0.584,18.815-5.723,28.624-5.723     c0.832,0,1.59,0.052,2.312,0.127c-21.74-64.705-97.844-135.625-97.844-135.625s20.419,93.613,29.26,130.364L244.484,140.85z" fill="#222222"/><path d="M311.785,252.758l17.318-19.55c0,0,12.826-1.809,16.369-14.219c3.544-12.417,20.833-35.023,20.833-35.023     s10.642,9.312,20.393,4.434c9.752-4.878,11.081-8.422,11.081-8.422h-5.763l5.763-7.093h-6.647l4.879-7.538h-4.439     c0,0,0-6.208,1.774-5.318c1.774,0.884,4.434,3.104,4.434,3.104l4.035-3.19v3.19l3.947-3.19c0,0,16.845,0.526,24.821-6.122     c7.982-6.647,14.63-9.306,10.642-15.069c-3.994-5.763-16.404-8.867-25.271-6.208c-7.093-1.775-21.277-7.093-30.139-6.203     c-0.673,0.067-1.472,0.171-2.354,0.305c2.878-3.27,4.155-6.578,3.29-9.479c-2.254-7.555-18.155-9.485-35.514-4.3     c-17.364,5.179-29.607,15.503-27.354,23.058c1.681,5.636,10.947,8.138,22.745,6.902c-0.747,1.098-1.299,2.249-1.601,3.456     c-3.098,12.416-19.022,24.162-31.011,28.041c-11.983,3.878-24.55-1.092-33.706,9.197c-9.155,10.295-7.179,20.162-8.907,27.589     c-1.734,7.434-23.85,25.521-33.052,32.965c-3.358,2.717-6.419,5.295-9.22,7.758c15.555,0.82,27.618,6.242,35.04,15.826     c5.619,7.255,11.15,20.41,5.596,41.891c-2.682,10.376-5.746,20.861-8.82,30.289c6.85-6.827,11.502-13.341,13.601-18.896     c15.96-6.208,28.37-13.745,32.358-26.82S311.785,252.758,311.785,252.758z M387.022,165.347v14.185c0,0-1.208,6.208-6.087,4.879     c-0.93-0.253-1.957-1.058-3.034-2.247l5.381-4.233l-7.823,1.036c-0.374-0.556-0.75-1.142-1.126-1.751l4.476-3.521l-6.068,0.804     c-0.57-1.019-1.135-2.072-1.689-3.143l6.133-4.829l-8.011,1.061c-1.646-3.418-3.109-6.75-4.197-9.333     c1.688-2.869,3.893-4.818,6.353-6.1l-0.82,8.973l7.937-10.981c2.1-0.207,4.21-0.15,6.221,0.068l-0.747,8.214l5.38-7.439     c4.432,0.996,7.597,2.393,7.597,2.393C388.473,154.266,387.022,165.347,387.022,165.347z" fill="#222222"/></g><g/><g/><g/><g/><g/><g/></g></svg>